<svg xmlns="http://www.w3.org/2000/svg" width="64" height="64"><defs><linearGradient x1="50%" y1="0%" x2="50%" y2="100%" id="enter_svg__a"><stop stop-color="#A1D0FF" stop-opacity="0" offset="0%"></stop><stop stop-color="#68A3FF" offset="100%"></stop></linearGradient></defs><g fill="none" fill-rule="evenodd"><path d="M0 0h64v64H0z" fill="none"></path><g transform="translate(17 17)" fill="none"><circle fill="url(&quot;#enter_svg__a&quot;)" opacity="0.3" cx="23" cy="23" r="23"></circle><path d="M5.865 38.343C10.076 43.043 16.193 46 23 46h0c12.703 0 23-10.297 23-23 0-6.56-2.747-12.48-7.154-16.67" stroke="#0164ff" fill="none"></path></g><path d="M0 0h48v48H0z" fill="none"></path><path d="M41.318 32.022L35.47 37.87l-4.093 4.093h-3.892a1.226 1.226 0 01-1.217-1.217v-3.902l4.088-4.088 5.847-5.847a2.009 2.009 0 012.84 0l2.274 2.273a2.009 2.009 0 010 2.841zm-2.557-1.988l-.569-.569a.804.804 0 00-1.136 0l-8.376 8.377v1.71h1.7l8.38-8.382a.804.804 0 000-1.136zm-1.409-6.036c-.665 0-1.205-.54-1.205-1.205V9.253a.804.804 0 00-.803-.804H9.227a.804.804 0 00-.803.804v29.49c0 .444.36.804.803.804h12.295a1.205 1.205 0 110 2.41h-13.5c-1.11 0-2.009-.898-2.009-2.008V8.047c0-1.11.9-2.009 2.01-2.009h28.526c1.11 0 2.009.9 2.009 2.01v14.745c0 .665-.54 1.205-1.206 1.205zM12.08 18.171c0-.665.54-1.204 1.205-1.204h18.001a1.205 1.205 0 110 2.409H13.285c-.666 0-1.205-.54-1.205-1.205zm14.666 7.032H13.285c-.666 0-1.205-.539-1.205-1.204v-.002c0-.665.54-1.204 1.205-1.204h13.461c.665 0 1.205.539 1.205 1.204V24c0 .665-.54 1.204-1.205 1.204zM13.285 31.03a1.205 1.205 0 110-2.409h8.888a1.205 1.205 0 110 2.41h-8.888z" fill="#0164ff" fill-rule="nonzero"></path></g></svg>