<svg t="1586402256544" viewBox="0 0 1024 1024" version="1.1" xmlns="http://www.w3.org/2000/svg" p-id="14235" width="30" height="30"><path d="M917.7 363.7H106.3c-23.7 0-42.9-19.2-42.9-42.9v-58.5c0-23.7 19.2-42.9 42.9-42.9h811.5c23.7 0 42.9 19.2 42.9 42.9v58.5c-0.1 23.7-19.3 42.9-43 42.9z" fill="#ffc8c8" p-id="14236"></path><path d="M434.3 256.6l-106.1-61.3c-22.3-12.9-30-41.4-17.1-63.8 12.9-22.3 41.4-30 63.8-17.1L481 175.7l-46.7 80.9zM585.5 256.6l106.1-61.3c22.3-12.9 30-41.4 17.1-63.8-12.9-22.3-41.4-30-63.8-17.1l-106.1 61.3 46.7 80.9z" fill="#ffc8c8" p-id="14237"></path><path d="M899.1 487.9v379.7c0 26.6-21.6 48.2-48.2 48.2H173.1c-26.6 0-48.2-21.6-48.2-48.2V487.9c0-26.6 21.6-48.2 48.2-48.2h268.3V670l72.1-63.9 69.1 63.9V439.6h268.3c26.6 0 48.2 21.6 48.2 48.3z" fill="#ff4f4a" p-id="14238"></path></svg>