<svg xmlns="http://www.w3.org/2000/svg" width="30" height="30" viewBox="0 0 30 30"><g fill="none" fill-rule="nonzero"><path d="M0 0h30v30H0z" fill="none"></path><path id="customer" d="M5.2 14.834l1.023 4.522c-2.033.29-3.34-.726-3.92-3.05-.568-2.272.104-3.85 2.018-4.733C5.648 6.641 9.92 3.023 15 3.023c5.092 0 9.372 3.635 10.689 8.586 1.855.89 2.503 2.455 1.942 4.698-.42 1.68-1.22 2.676-2.4 2.99-1.479 3.115-3.452 5.142-5.914 6.036a1.307 1.307 0 11-.364-1.259c1.93-.73 3.53-2.298 4.793-4.714a5.28 5.28 0 01-.035-.004l1.086-4.8C24.663 8.875 20.319 4.329 15 4.329c-5.403 0-9.8 4.69-9.8 10.497v.008zm6.316-3.318c.48 0 .87.39.87.87v1.743a.871.871 0 01-1.742 0v-1.742c0-.481.39-.871.872-.871zm6.968 0c.482 0 .872.39.872.87v1.743a.871.871 0 01-1.743 0v-1.742c0-.481.39-.871.871-.871zm-7.503 5.602l1.069-.752c.692.985 1.653 1.465 2.95 1.465 1.297 0 2.258-.48 2.95-1.465l1.069.752c-.941 1.339-2.304 2.02-4.019 2.02-1.715 0-3.078-.681-4.019-2.02z" fill="#111111"></path></g></svg>