<svg xmlns="http://www.w3.org/2000/svg" width="64" height="64"><defs><linearGradient x1="50%" y1="0%" x2="50%" y2="100%" id="activist_svg__a"><stop stop-color="#A1D0FF" stop-opacity="0" offset="0%"></stop><stop stop-color="#68A3FF" offset="100%"></stop></linearGradient></defs><g fill="none" fill-rule="evenodd"><path d="M0 0h64v64H0z" fill="none"></path><g transform="translate(17 17)" fill="none"><circle fill="url(&quot;#activist_svg__a&quot;)" opacity="0.3" cx="23" cy="23" r="23"></circle><path d="M5.865 38.343C10.076 43.043 16.193 46 23 46h0c12.703 0 23-10.297 23-23 0-6.56-2.747-12.48-7.154-16.67" stroke="#0164ff" fill="none"></path></g><path d="M0 0h48v48H0z" fill="none"></path><path d="M29.15 39h11.5a1.15 1.15 0 110 2.3h-11.5a1.15 1.15 0 110-2.3z" fill="#0164ff" fill-rule="nonzero"></path><path d="M26.407 31.033a2.38 2.38 0 00.618 2.322l1.15 1.15a2.87 2.87 0 002.045.852 2.87 2.87 0 002.045-.852l6.753-6.752a2.87 2.87 0 00.852-2.045 2.87 2.87 0 00-.852-2.045l-1.236-1.236c-.66-.66-1.64-.83-2.45-.49l-9.905-9.905c.341-.81.17-1.79-.49-2.45l-1.235-1.235a2.893 2.893 0 00-4.09 0l-6.753 6.752a2.893 2.893 0 000 4.09l1.13 1.13a2.37 2.37 0 001.682.702c.213 0 .426-.021.64-.085l2.662 2.663L6.724 35.847A2.462 2.462 0 006 37.615c0 .682.256 1.3.724 1.768l1.427 1.428a2.474 2.474 0 001.726.724c.618 0 1.257-.234 1.725-.724l12.27-12.27 2.535 2.492zm10.885-5.347c0 .064-.021.15-.106.235l-6.753 6.752a.327.327 0 01-.234.107.327.327 0 01-.235-.107l-1.022-1.022 7.221-7.221 1.023 1.022c.085.064.106.17.106.234h0zM14.65 16.91l6.752-6.753a.342.342 0 01.235-.106c.085 0 .17.042.234.106l1.022 1.023-7.221 7.221-1.022-1.022a.334.334 0 010-.469h0zm8.35 8.904l-13.1 13.1-1.3-1.299 13.1-13.1c.49-.49.49-1.3 0-1.81l-3.365-3.345 5.41-5.41 9.65 9.649-5.39 5.39-3.173-3.175a1.325 1.325 0 00-1.832 0z" stroke="#ffffff" stroke-width="0.5px" fill="#0164ff" fill-rule="nonzero"></path></g></svg>