<svg xmlns="http://www.w3.org/2000/svg" width="64" height="64"><defs><linearGradient x1="50%" y1="0%" x2="50%" y2="100%" id="certificate_svg__a"><stop stop-color="#A1D0FF" stop-opacity="0" offset="0%"></stop><stop stop-color="#68A3FF" offset="100%"></stop></linearGradient></defs><g fill="none" fill-rule="evenodd"><path d="M0 0h64v64H0z" fill="none"></path><g transform="translate(17 17)" fill="none"><circle fill="url(&quot;#certificate_svg__a&quot;)" opacity="0.3" cx="23" cy="23" r="23"></circle><path d="M5.865 38.343C10.076 43.043 16.193 46 23 46h0c12.703 0 23-10.297 23-23 0-6.56-2.747-12.48-7.154-16.67" stroke="#0164ff" fill="none"></path></g><path d="M0 0h48v48H0z" fill="none"></path><path d="M36.147 12.293v-3.04a.804.804 0 00-.803-.804H9.227a.804.804 0 00-.803.804v29.49c0 .444.36.804.803.804h12.295a1.205 1.205 0 110 2.41h-13.5c-1.11 0-2.009-.898-2.009-2.008V8.047c0-1.11.9-2.009 2.01-2.009h28.526c1.11 0 2.009.9 2.009 2.01v4.245a1.205 1.205 0 11-2.41 0zM12.08 13.67c0-.665.54-1.204 1.205-1.204h18.001a1.205 1.205 0 110 2.409H13.285c-.666 0-1.205-.54-1.205-1.205zm14.666 8.532H13.285c-.666 0-1.205-.539-1.205-1.204v-.002c0-.665.54-1.204 1.205-1.204h13.461c.665 0 1.205.539 1.205 1.204V21c0 .665-.54 1.204-1.205 1.204zM13.285 29.53a1.205 1.205 0 110-2.409h8.888a1.205 1.205 0 110 2.41h-8.888zm24.463 5.459h4.142a1.38 1.38 0 010 2.76H30.847a1.38 1.38 0 010-2.76h4.14v-2.899a6.905 6.905 0 011.381-13.666 6.902 6.902 0 011.38 13.666v2.899zm-1.38-5.522a4.141 4.141 0 100-8.282 4.141 4.141 0 000 8.282zm-6.902 9.663H43.27a1.38 1.38 0 010 2.76H29.466a1.38 1.38 0 010-2.76z" fill="#0164ff" fill-rule="nonzero"></path></g></svg>