<svg width="40" height="40" xmlns="http://www.w3.org/2000/svg"><path d="M31.948 21.126c.034-.371.052-.746.052-1.126 0-6.627-5.373-12-12-12S8 13.373 8 20s5.373 12 12 12c2.304 0 4.456-.65 6.284-1.775l7.46 4.307c-6.26 5.924-15.897 7.315-23.742 2.786C.437 31.796-2.84 19.566 2.682 10.002 8.204.437 20.434-2.84 29.998 2.682c8.07 4.66 11.664 14.093 9.274 22.672l-7.324-4.228zm3.183 11.806l-7.64-4.41a11.36 11.36 0 0 0 1.488-1.616l7.455 4.304a20.018 20.018 0 0 1-1.303 1.722zm3.314-5.509a20.11 20.11 0 0 1-.907 1.95l-7.43-4.29a11.33 11.33 0 0 0 .778-2.024l7.559 4.364z" fill-opacity=".08"/></svg>