<svg xmlns="http://www.w3.org/2000/svg" width="1.07rem" height="0.77rem" viewBox="0 0 50 30" width="50"  height="30" ><g fill-rule="nonzero" fill="none"><path d="M0 0h50v30H0z" fill="none"></path><ellipse fill="#ffd100" cx="16.765" cy="10.973" rx="10.98" ry="10.973"></ellipse><g transform="translate(18.333 7.838)" fill="none"><path d="M18.819 8.76a6.4 6.4 0 0 1 .005.254c0 3.679-3.16 6.662-7.06 6.662-3.898 0-7.058-2.983-7.058-6.662 0-.085.002-.17.005-.254a2.404 2.404 0 0 1-.005-.155V2.368A2.368 2.368 0 0 1 7.074 0h9.381a2.368 2.368 0 0 1 2.369 2.368v6.237c0 .052-.002.104-.005.155z" stroke="#333333" stroke-width="3.158px" fill="none"></path><rect fill="#333333" x="5.49" y="18.027" width="12.549" height="3.135" rx="1.568"></rect><rect fill="#333333" transform="rotate(-90 11.765 17.635)" x="8.235" y="16.068" width="7.059" height="3.135" rx="1.568"></rect><path d="M18.824 3.919h4.479c0 4.95-1.493 7.425-4.48 7.425V3.92zM4.48 3.919H0c0 4.95 1.493 7.425 4.48 7.425V3.92z" stroke="#333333" stroke-width="3.158px" stroke-linecap="round" stroke-linejoin="round" fill="none"></path></g></g></svg>