<svg xmlns="http://www.w3.org/2000/svg" width="1.07rem" height="0.77rem" viewBox="0 0 50 30" width="50"  height="30" ><g fill-rule="nonzero" fill="none"><path d="M0 0h50v30H0z" fill="none"></path><ellipse fill="#ffd100" cx="13.765" cy="10.973" rx="10.98" ry="10.973"></ellipse><g stroke="#282828" stroke-width="3.158px" fill="none"><path d="M16.783 13.29l11.536-5.244a2.368 2.368 0 0 1 3.268 1.543l2.548 9.51a2.368 2.368 0 0 1-2.058 2.97l-12.614 1.226a2.368 2.368 0 0 1-2.516-1.744l-1.472-5.491a2.368 2.368 0 0 1 1.308-2.77z" stroke-linecap="round" stroke-linejoin="round" stroke="#282828" fill="none" stroke-width="3.158px"></path><path d="M28.387 23.151l.217.768a2.368 2.368 0 0 1-1.852 2.973l-2.034.373a2.368 2.368 0 0 1-2.729-1.77l-.588-2.417" stroke="#282828" fill="none" stroke-width="3.158px"></path><path d="M35.588 7.93l2.09-3.316M37.941 13.751l4.586-1.21M38.725 19.595l3.319 2.088" stroke-linecap="round" stroke="#282828" fill="none" stroke-width="3.158px"></path></g></g></svg>