<svg width="140" height="51" xmlns="http://www.w3.org/2000/svg"><g fill="#FFF" fill-rule="evenodd"><path d="M1.782 24.645V7.464h3.164v17.181h1.893V7.465h3.163v17.18h.964v3.224H1v-3.224h.782zM4.113.001h3.47v2.61h3.123v2.997H1.258V2.61h2.855V.001zm36.693 15.323h11.345V27.996H40.806V15.324zm3.023 9.593h5.302v-6.513H43.83v6.513zM41.013.077h2.877v2.882h1.122V.112h3.163v2.847h3.892V5.6h-3.892v4.893h3.948v2.638H40.807v-2.638h4.205V5.6h-3.999V.077zM27.856.876h12.32v2.638h-2.56v2.735h2.302V27.996H27.804V6.249h2.54V3.514h-2.488V.876zm5.507 5.373h1.233V3.514h-1.233v2.735zm-2.97 12.681v1.903h6.938V18.93H34.075V8.889h-.67V18.93h-3.012zm6.067-2.413h.87V8.89h-.87v7.627zm-6.067 0h.773V8.89h-.773v7.627zm0 8.84h6.937v-1.885h-6.937v1.885zM15.942 0h3.02v3.221h5.887l-.392 3.08h-5.495v6.43h5.875V27.87H12.13v-.015h-.192V12.731h4.004V0zm-.984 24.645h6.859v-8.837h-6.859v8.837zM65.162.001h3.022V1.62H78.34V4.58H55.002V1.62h10.16V0zm-3.494 11.321h10.005v-2.06H61.668v2.06zm-3.025 2.631V6.629h16.052v7.324H58.643zM61.496 28v-6.67h10.35V28h-10.35zm2.85-2.28h4.649v-2.11h-4.65v2.11zM55 16.158H78.34V28H74.99v-8.881H58.35v8.88h-3.349V16.158zM91.505 0h3.024V1.62h10.154V4.58H81.346V1.62h10.16V0zm-3.492 11.321h10.004v-2.06H88.013v2.06zm-3.027 2.631V6.629h16.053v7.324H84.986zM87.836 28v-6.67H98.19V28H87.837zm2.852-2.28h4.648v-2.11h-4.648v2.11zm-9.343-9.563h23.338V28h-3.348v-8.881H84.692v8.88h-3.347V16.158zm26.323-14.54H131l-.418 2.965H121.1V9.33h9.063v2.966H121.1v4.747H131v2.963h-9.9V28h-6.659v-2.965h3.13v-5.03h-9.903v-2.962h9.903v-4.747h-9.062V9.33h9.062V4.582h-9.903V1.617z"/><path d="M.84 38.864h3.304V37.52h1.022v1.344h3.668V37.52h1.022v1.344h3.304v.952H9.856v1.26H8.834v-1.26H5.166v1.26H4.144v-1.26H.84v-.952zm1.232 2.87h9.184v.98c-3.78 2.044-6.258 3.626-7.462 4.774-.476.476-.742.868-.798 1.19 0 .28.196.434.588.434h6.734c.476 0 .84-.098 1.106-.28.28-.196.49-1.036.63-2.492l.938.378c-.168 1.568-.448 2.52-.84 2.842-.392.322-.966.49-1.736.49H3.654c-1.148 0-1.722-.406-1.722-1.204 0-.602.462-1.316 1.386-2.128 1.232-1.12 3.304-2.464 6.244-4.004h-7.49v-.98zm12.992-.854h5.432v-3.346h1.008v3.346h5.446v.966h-4.438c.924 2.324 2.534 4.396 4.844 6.216l-.672.854c-2.464-2.1-4.172-4.466-5.124-7.07h-.056v8.526h-1.008v-8.526h-.056c-1.036 2.912-2.814 5.306-5.306 7.154l-.546-.896c2.268-1.624 3.906-3.71 4.9-6.258h-4.424v-.966zm8.694-3.318c.84.868 1.484 1.624 1.932 2.268l-.798.574c-.476-.714-1.106-1.498-1.918-2.352l.784-.49zm6.496.266c.882.7 1.624 1.386 2.226 2.072l-.686.7c-.546-.672-1.288-1.372-2.24-2.114l.7-.658zm-1.624 4.046h2.926v6.216a32.87 32.87 0 0 0 1.624-1.442l.28 1.064a20.775 20.775 0 0 1-2.8 2.198l-.392-.896c.196-.196.308-.406.308-.63V42.84H28.63v-.966zm4.97 1.638h6.664v.924a8.173 8.173 0 0 1-2.198 3.402c.952.658 2.114 1.232 3.486 1.736l-.546.868c-1.456-.588-2.688-1.246-3.668-2.002-1.12.84-2.506 1.498-4.144 2.002l-.56-.854c1.554-.462 2.856-1.064 3.906-1.806-1.064-.98-1.778-2.072-2.17-3.29h-.77v-.98zm1.722.98c.364 1.008 1.008 1.918 1.932 2.716.896-.784 1.568-1.68 2.016-2.716h-3.948zm-.644-6.384h4.704v3.024c0 .35.182.532.546.532h1.288v.924h-1.54c-.868 0-1.288-.42-1.288-1.246V39.06h-2.716v.49c0 1.484-.728 2.632-2.156 3.444l-.672-.77c1.218-.602 1.834-1.456 1.834-2.562v-1.554zm12.334 3.654h3.794v-4.214h1.036v4.214h3.598v1.008h-3.598v7.658h-1.036V42.77h-3.794v-1.008zm-2.744-4.06c.952.714 1.75 1.428 2.394 2.156l-.686.7c-.588-.686-1.4-1.414-2.408-2.17l.7-.686zm-1.638 4.144h3.024v6.23c.504-.42 1.064-.896 1.652-1.456l.252 1.036a19.45 19.45 0 0 1-2.8 2.24l-.392-.91c.21-.168.322-.364.322-.588v-5.586H42.63v-.966zm18.396 2.24h3.206v-2.604h1.022v2.604H68.6v.98h-3.346v3.864h3.976v.994h-8.778v-.994h3.78v-3.864h-3.206v-.98zm-2.254.616a21.686 21.686 0 0 1-1.652 1.54l-.63-.826c1.75-1.442 3.108-3.094 4.088-4.956H56.98v-.994h4.074c.28-.644.532-1.316.728-2.002l1.05.126a19.75 19.75 0 0 1-.658 1.876h7.042v.994h-7.49a17.259 17.259 0 0 1-1.96 3.094v6.888h-.994v-5.74zm16.8 2.912v.966c-1.372.532-2.94.966-4.704 1.288l-.126-.98c1.848-.308 3.458-.742 4.83-1.274zM73.08 37.492l.966.378c-.714 1.82-1.442 3.276-2.17 4.368.63-.056 1.26-.14 1.89-.238.252-.504.532-1.036.812-1.596l.896.336c-1.232 2.366-2.268 4.046-3.08 5.04a24.11 24.11 0 0 0 3.024-.798v.91c-1.47.476-2.87.812-4.214.994l-.28-.924c.182-.084.336-.182.462-.294.518-.532 1.148-1.456 1.876-2.758-.77.112-1.554.21-2.338.308l-.238-.924c.154-.056.294-.182.42-.364.756-1.288 1.414-2.772 1.974-4.438zm9.282 2.548l.14.924-3.598.504c.028.672.07 1.302.126 1.904l3.71-.588.154.952-3.752.588c.028.252.07.504.112.728.14.728.308 1.358.504 1.918a12.77 12.77 0 0 0 2.016-2.38l.798.546c-.742 1.078-1.54 2.002-2.408 2.758.056.084.098.182.154.266.462.686.868 1.036 1.232 1.036s.686-.756.938-2.254l.854.56c-.392 1.848-.952 2.786-1.68 2.786-.672-.028-1.302-.448-1.904-1.288a2.887 2.887 0 0 1-.322-.518 10.979 10.979 0 0 1-3.346 1.708l-.588-.812a12.052 12.052 0 0 0 3.486-1.778 11.305 11.305 0 0 1-.644-2.044c-.084-.364-.14-.714-.196-1.078l-2.52.406-.14-.952 2.534-.406a20.364 20.364 0 0 1-.126-1.918l-2.016.294-.154-.924 2.142-.308v-3.108h1.008v2.968l3.486-.49zm-1.918-2.52c.714.672 1.26 1.246 1.652 1.736l-.784.546c-.392-.546-.952-1.148-1.652-1.792l.784-.49zm12.124 4.858c-.28.588-.574 1.106-.91 1.582l-.602-.742c.896-1.4 1.498-3.29 1.806-5.67l.994.168a29.452 29.452 0 0 1-.392 1.988h3.64v.966h-.868c-.084 2.24-.546 4.172-1.386 5.768a9.962 9.962 0 0 0 2.618 3.038l-.504.882a10.135 10.135 0 0 1-2.66-3.01c-.812 1.204-1.876 2.212-3.164 3.01l-.56-.91a9.03 9.03 0 0 0 3.206-3.08c-.56-1.176-.966-2.506-1.218-3.99zm2.73-1.708h-2.086a.199.199 0 0 0-.028.084c.168 1.736.532 3.276 1.12 4.606.602-1.358.938-2.926.994-4.69zm-9.856-1.778h1.834v-1.246h.966v1.246h1.498v.896h-1.498v1.428h.812a17.708 17.708 0 0 0 1.918-3.038l.784.406a24.733 24.733 0 0 1-1.596 2.632h1.036v.938h-1.75c-.378.448-.756.868-1.148 1.26h2.38v.728a15.84 15.84 0 0 1-1.68 1.68v.686c.924-.14 1.764-.322 2.492-.518v.938c-.686.182-1.512.35-2.492.49v1.624c0 .812-.406 1.218-1.218 1.218h-1.372l-.252-.91c.518.042.938.07 1.246.07.406 0 .616-.224.616-.644v-1.218a92.99 92.99 0 0 1-3.08.322l-.14-.966a48.284 48.284 0 0 0 3.22-.266v-1.022c.504-.378.994-.812 1.47-1.316h-2.17c-.7.574-1.414 1.078-2.17 1.498l-.63-.714c.448-.252.868-.518 1.26-.784h-.322v-.896h1.484c.476-.406.91-.826 1.316-1.26h-3.472v-.938h2.492v-1.428h-1.834v-.896zm13.286-.084h5.81a9.086 9.086 0 0 0-.588-1.106l1.162-.182c.196.378.378.812.56 1.288h5.628v.952h-3.29c1.288 1.022 2.268 1.918 2.94 2.674l-.84.588a15.187 15.187 0 0 0-1.05-1.12c-2.324.196-5.334.35-9.044.49l-.224-.882a1.87 1.87 0 0 0 .49-.14c.644-.392 1.372-.938 2.156-1.61h-3.71v-.952zm4.97.952c-.812.756-1.554 1.344-2.24 1.764 2.674-.084 4.942-.21 6.818-.364-.336-.322-.7-.644-1.092-.952l.7-.448h-4.186zm-1.862 6.342v1.106h6.37v-1.106h-6.37zm6.37-.868v-1.19h-6.37v1.19h6.37zm-6.37 2.842V50.4h-1.008v-7.224h8.4v5.894c0 .868-.448 1.302-1.344 1.302h-1.428l-.266-.98 1.358.042c.434 0 .658-.196.658-.574v-.784h-6.37zm11.522-9.884h11.312v.98h-5.208v5.292h5.74v.966h-5.74v4.956h-1.036V45.43h-5.628v-.966h5.628v-5.292h-5.068v-.98zm1.708 1.876c.532.98 1.036 2.044 1.512 3.206l-.938.462a25.497 25.497 0 0 0-1.512-3.206l.938-.462zm7.938-.07l.924.434a17.403 17.403 0 0 1-1.666 3.248l-.896-.462c.686-1.092 1.232-2.156 1.638-3.22zm14.672 4.578v5.838h-1.022v-.7h-7.308v.7h-1.022v-5.838h9.352zm-8.33 4.172h7.308v-3.206h-7.308v3.206zm-2.016-5.614l-.196-.952c1.232-.42 2.758-1.974 4.578-4.648l1.036.35c-1.26 1.792-2.534 3.22-3.794 4.256 2.688-.112 5.236-.294 7.644-.518a26.282 26.282 0 0 0-1.638-2.114l.91-.434a35.6 35.6 0 0 1 3.36 4.648l-.98.476c-.35-.588-.7-1.134-1.036-1.666-2.954.266-6.244.462-9.884.602z" fill-rule="nonzero"/></g></svg>