<svg width="1805" height="335" xmlns="http://www.w3.org/2000/svg" xmlns:xlink="http://www.w3.org/1999/xlink"><defs><path id="a" d="M0 0h3000v335H0z"/><linearGradient x1="76.132%" y1="12.492%" x2="25.151%" y2="100%" id="c"><stop stop-color="#51D9BF" stop-opacity=".173" offset="0%"/><stop stop-color="#28B28B" stop-opacity="0" offset="100%"/></linearGradient></defs><g transform="translate(-593)" fill="none" fill-rule="evenodd"><mask id="b" fill="#fff"><use xlink:href="#a"/></mask><g mask="url(#b)"><g transform="translate(583 -281)"><g opacity=".092" stroke="#28B28B"><path d="M205 885c113.218 0 257-93.782 257-207 0-43.985-12.923-106.549-36-134-29.487-35.077-87.391.586-139.169-15-26.576-8-41.37-58-81.831-54C92.395 486.132 0 566.782 0 680s91.782 205 205 205z"/><path d="M205 832c83.947 0 210.73-129.053 210.73-213 0-59.083-79.663-15.607-128.899-40.76C266.111 567.655 254.241 531 205 528c-83.726-5.101-152 68.053-152 152s68.053 152 152 152z"/><path d="M205 781c55.78 0 194.14-33.22 194.14-89 0-1.383-10.14-29.151-37.14-53.151-27-24-85.031-9.252-99.086-25.866C244.387 591.083 235.932 579 205 579c-55.78 0-101 45.22-101 101s45.22 101 101 101z"/></g><g opacity=".121" stroke="#28B28B"><path d="M1629.283 417.202C1742.502 417.202 1827 318.218 1827 205S1735.218 0 1622 0s-209.865 125.38-229.107 236.96c-16.372 94.945 101.598 98.224 164.49 123.639 34.485 13.936 31.989 56.603 71.9 56.603z"/><path d="M1637 373.574c83.947 0 137-84.627 137-168.574 0-83.947-68.053-152-152-152s-152 68.053-152 152c0 61.94 2.304 89.697 97.778 107.164 37.364 6.836 47.215 61.41 69.222 61.41z"/><path d="M1645.712 329c55.707-3.185 77.288-68.22 77.288-124s-45.22-101-101-101-101 45.22-101 101c0 39.039 41.8 59.188 74.216 76 13.902 7.21 19.378 49.779 50.496 48z"/></g><circle fill="url(#c)" fill-rule="nonzero" cx="239.5" cy="544.5" r="18.5"/><circle fill="url(#c)" fill-rule="nonzero" cx="1565" cy="313" r="16"/></g></g></g></svg>