<svg width="592" height="524" xmlns="http://www.w3.org/2000/svg" xmlns:xlink="http://www.w3.org/1999/xlink"><defs><path id="a" d="M0 0h591v524H0z"/></defs><g fill="none" fill-rule="evenodd"><mask id="b" fill="#fff"><use xlink:href="#a"/></mask><g opacity=".092" mask="url(#b)" fill-rule="nonzero" stroke="#28B28B"><path d="M261.683 523.666c144.294 0 389.764-102.88 316.319-230.293-28.73-49.842-5.249-169.451-34.66-204.449-37.58-44.72-111.377.747-177.367-19.123C332.105 59.6 313.25-4.144 261.683.956 118.172 15.149.657 117.969.415 262.31.156 417.406 83.08 362.65 117.708 406.99c47.817 61.224 60.288 116.676 143.975 116.676z"/><path d="M348.403 420.078c63.787 0 108.481 63.231 165.394-43.529 27.102-50.838 10.292-112.174 11.764-189.234 1.436-75.18-96.279-23.431-159.084-55.424-26.431-13.464-41.574-60.089-104.385-63.905-106.802-6.488-191.31 86.583-193.893 193.34-2.075 85.703 58.95 79.452 94.45 124.49 35.498 45.039 123.85 34.262 185.754 34.262z"/><path d="M286.462 370.793c71.134 0 156.117-64.946 183.485-89.444 27.369-24.5 30.604-71.295-11.962-78.4-42.567-7.106-98.88 1.522-122.506-26.43-23.626-27.953-34.408-43.376-73.853-43.376-71.134 0-139.332 51.666-139.332 122.864 0 71.198 48.463 55.17 67.097 77.53 23.626 28.35 57.302 37.256 97.071 37.256z"/><path d="M306.557 302.836c36.568 0 107.08-19.61 107.08-56.32 0-20.913-36.485.458-78.668-8.193-31.862-6.535-36.749-42.487-73.317-42.487-36.568 0-59.014 28.443-59.014 65.153 0 36.71 67.352 41.847 103.92 41.847z"/></g></g></svg>