<svg width="1200" height="303" xmlns="http://www.w3.org/2000/svg"><g fill="none" fill-rule="evenodd"><path fill="#EBF1EF" fill-rule="nonzero" d="M0 0h1200v303H0z"/><path d="M603.984 156.37c-.029.081-.724 2.003-2.178 4.123-1.94 2.827-4.31 4.624-6.854 5.199-.906.204-1.797.308-2.65.308-4.894 0-7.161-3.31-7.255-3.451a.275.275 0 0 1-.022-.269.279.279 0 0 1 .218-.16c3.034-.393 3.553-.48 6.993-1.436 4.46-1.24 11.291-4.62 11.36-4.655a.282.282 0 0 1 .31.04.277.277 0 0 1 .078.301m-26.999 5.251c-.008.024-.827 2.379-3.11 2.379a4.17 4.17 0 0 1-1.444-.282c-2.993-1.11-4.364-6.144-4.421-6.358a.287.287 0 0 1 .273-.36c.066 0 .132.023.185.069.021.019 2.205 1.903 3.922 2.77 1.864.94 2.517 1.151 4.365 1.407.084.012.158.06.203.133a.289.289 0 0 1 .027.242m57.289-15.429a39.094 39.094 0 0 1-8.766 1.966c5.215-6.753 8.311-15.169 8.311-24.296 0-.639-.015-1.274-.046-1.906-.021-.44-.595-.732-.955-.34a38.813 38.813 0 0 1-22.783 11.985 18.61 18.61 0 0 0 1.915-8.243c0-2.48-.485-4.85-1.367-7.02a.556.556 0 0 0-1.027.01c-2.681 6.703-9.356 10.222-16.939 11.44C576.64 132.358 565 141.925 565 156.895c0 14.97 12.365 27.106 27.617 27.106 13.412 0 24.589-9.383 27.093-21.824 7.198-2.5 12.869-8.171 15.265-15.305a.545.545 0 0 0-.701-.679" fill="#D7E0DE"/></g></svg>