<svg xmlns="http://www.w3.org/2000/svg" width="64" height="64"><defs><linearGradient x1="50%" y1="0%" x2="50%" y2="100%" id="monitor_svg__a"><stop stop-color="#A1D0FF" stop-opacity="0" offset="0%"></stop><stop stop-color="#68A3FF" offset="100%"></stop></linearGradient></defs><g fill="none" fill-rule="evenodd"><path d="M0 0h64v64H0z" fill="none"></path><g transform="translate(17 17)" fill="none"><circle fill="url(&quot;#monitor_svg__a&quot;)" opacity="0.3" cx="23" cy="23" r="23"></circle><path d="M5.865 38.343C10.076 43.043 16.193 46 23 46h0c12.703 0 23-10.297 23-23 0-6.56-2.747-12.48-7.154-16.67" stroke="#0164ff" fill="none"></path></g><path d="M0 0h48v48H0z" fill="none"></path><path d="M24 37.5c7.456 0 13.5-6.044 13.5-13.5S31.456 10.5 24 10.5 10.5 16.544 10.5 24c0 5.6 3.41 10.405 8.269 12.449" stroke="#0164ff" stroke-width="2.2px" stroke-linecap="round" stroke-linejoin="round" fill="none"></path><path d="M24.011 19.104a4.901 4.901 0 10.002 9.802 4.901 4.901 0 00-.002-9.802zm.007 7.907c-1.658 0-3-1.343-3-3 0-1.658 1.342-3 3-3 1.657 0 3 1.342 3 3a2.995 2.995 0 01-3 3zm-.007-12.478c-.802 0-1.456-.65-1.456-1.456v-5.61a1.456 1.456 0 112.912 0v5.614c0 .803-.653 1.452-1.456 1.452zm0 27.465c-.802 0-1.456-.65-1.456-1.456v-5.614a1.456 1.456 0 112.912 0v5.614c0 .806-.653 1.456-1.456 1.456zm-9.47-17.994c0 .803-.65 1.456-1.456 1.456H7.474a1.456 1.456 0 110-2.912h5.614c.803 0 1.452.654 1.452 1.456zm27.464 0c0 .803-.65 1.456-1.456 1.456h-5.614a1.456 1.456 0 110-2.912h5.614c.806 0 1.456.654 1.456 1.456z" fill="#0164ff" fill-rule="nonzero"></path></g></svg>