<svg xmlns="http://www.w3.org/2000/svg" width="120" height="120" style="margin-top:56px"><g fill="none" fill-rule="evenodd"><rect fill="#e9f3fe" opacity="0.5" width="120" height="120" rx="60"></rect><path d="M76.394 51.113l-2.407 2.407a14.519 14.519 0 011.772 6.964c0 8.027-6.535 14.562-14.563 14.562-8.027 0-14.562-6.535-14.562-14.562S53.169 45.92 61.196 45.92c2.522 0 4.888.643 6.964 1.772l2.407-2.406a17.726 17.726 0 00-9.37-2.662c-9.849 0-17.86 8.01-17.86 17.859 0 9.848 8.011 17.859 17.86 17.859 9.848 0 17.858-8.01 17.858-17.86 0-3.436-.972-6.642-2.661-9.37zm-6.684 6.692l-2.893 2.885a5.621 5.621 0 01-5.62 5.423 5.631 5.631 0 01-5.63-5.63 5.621 5.621 0 015.423-5.62l2.893-2.884a8.77 8.77 0 00-2.687-.42c-4.92 0-8.925 4.005-8.925 8.925 0 4.92 4.005 8.925 8.925 8.925 4.92 0 8.926-4.005 8.926-8.925 0-.932-.14-1.838-.412-2.679zM84.51 46.498l-2.406 2.407a23.78 23.78 0 012.991 11.579c0 13.178-10.722 23.9-23.9 23.9-13.177 0-23.9-10.722-23.9-23.9 0-13.178 10.723-23.9 23.9-23.9a23.78 23.78 0 0111.58 2.991l2.406-2.406a27.01 27.01 0 00-13.986-3.882C46.197 33.287 34 45.485 34 60.484 34 75.483 46.197 87.68 61.196 87.68c15 0 27.197-12.197 27.197-27.196a27.01 27.01 0 00-3.882-13.986z" fill="#0164ff" fill-rule="nonzero"></path><path d="M80.94 46.568l-3.147-.35L62.29 61.72a1.648 1.648 0 11-2.33-2.33l15.5-15.502-.349-3.146L83.854 32l1.165 4.662 4.662 1.165-8.742 8.741z" fill="#68a3ff"></path></g></svg>